<?xml version="1.0" encoding="utf-8"?>
<!-- Generator: Adobe Illustrator 25.2.0, SVG Export Plug-In . SVG Version: 6.00 Build 0)  -->
<svg version="1.1" id="Layer_1" xmlns="http://www.w3.org/2000/svg" xmlns:xlink="http://www.w3.org/1999/xlink" x="0px" y="0px"
	 viewBox="0 0 363.6 68.4" style="enable-background:new 0 0 363.6 68.4;" xml:space="preserve">
<style type="text/css">
	.st0{fill:#FDBF38;}
	.st1{fill:#DA1A32;}
</style>
<g>
	<g>
		<path d="M79.7,15.2h2.7v9.4c0,2,1.3,3.1,3.3,3.1s3.3-1.1,3.3-3.1v-9.4h2.7v9.4c0,3.3-2.4,5.5-5.9,5.5c-3.6,0-5.9-2.2-5.9-5.5V15.2
			z"/>
		<path d="M96,15.2h2.7l5.6,8.5c0.6,0.8,1.2,2.3,1.2,2.3h0c0,0-0.1-1.4-0.1-2.3v-8.5h2.7v14.7h-2.7l-5.6-8.5
			c-0.6-0.8-1.2-2.3-1.2-2.3h0c0,0,0.1,1.4,0.1,2.3v8.5H96V15.2z"/>
		<path d="M112.5,15.2h2.7v14.7h-2.7V15.2z"/>
		<path d="M117.9,15.2h2.9l3.2,9.6c0.3,0.8,0.5,2.2,0.6,2.2h0c0,0,0.3-1.3,0.6-2.2l3.3-9.6h2.9l-5.4,14.7h-2.7L117.9,15.2z"/>
		<path d="M133.9,15.2h8.8v2.3h-6.1v3.9h5v2.3h-5v4h6.5v2.3h-9.1V15.2z"/>
		<path d="M146.7,15.2h4.7c1.6,0,2.3,0.1,3,0.4c1.5,0.7,2.4,2.1,2.4,4c0,1.8-0.9,3.4-2.5,4v0c0,0,0.2,0.2,0.5,0.7l3,5.5h-3l-2.9-5.5
			h-2.6v5.5h-2.7V15.2z M151.8,22.1c1.4,0,2.3-0.8,2.3-2.3c0-1.4-0.6-2.3-2.7-2.3h-2v4.6H151.8z"/>
		<path d="M161.5,26.1c0,0,1.6,1.6,3.7,1.6c1.1,0,2.1-0.6,2.1-1.8c0-2.6-6.9-2.2-6.9-6.7c0-2.4,2.1-4.3,4.9-4.3
			c2.9,0,4.4,1.6,4.4,1.6l-1.2,2.2c0,0-1.4-1.3-3.3-1.3c-1.2,0-2.2,0.7-2.2,1.8c0,2.6,6.9,2,6.9,6.7c0,2.3-1.8,4.3-4.8,4.3
			c-3.3,0-5.1-2-5.1-2L161.5,26.1z"/>
		<path d="M173.4,15.2h2.7v14.7h-2.7V15.2z"/>
		<path d="M183.7,17.5h-4.8v-2.3h12.3v2.3h-4.8v12.4h-2.7V17.5z"/>
		<path d="M197.4,23.7l-4.9-8.6h3l2.3,4.3c0.5,0.9,0.9,2,0.9,2h0c0,0,0.4-1.1,0.9-2l2.3-4.3h3l-4.9,8.6v6.2h-2.7V23.7z"/>
		<path d="M220.1,14.9c4.3,0,7.6,3.3,7.6,7.5c0,4.3-3.3,7.7-7.6,7.7c-4.3,0-7.6-3.4-7.6-7.7C212.5,18.2,215.8,14.9,220.1,14.9z
			 M220.1,27.7c2.7,0,4.8-2.2,4.8-5.3c0-2.9-2.2-5.1-4.8-5.1c-2.7,0-4.8,2.2-4.8,5.1C215.3,25.4,217.4,27.7,220.1,27.7z"/>
		<path d="M231.1,15.2h8.5v2.3h-5.8v4.2h4.9v2.3h-4.9v5.9h-2.7V15.2z"/>
		<path d="M249.5,15.2h2.9l2.9,7.3c0.3,0.9,0.7,2.2,0.7,2.2h0c0,0,0.4-1.3,0.7-2.2l2.9-7.3h2.9l1.2,14.7H261l-0.6-8.2
			c-0.1-1,0-2.3,0-2.3h0c0,0-0.4,1.4-0.8,2.3l-2.4,5.7h-2.3l-2.4-5.7c-0.4-0.8-0.8-2.3-0.8-2.3h0c0,0,0,1.3,0,2.3l-0.6,8.2h-2.7
			L249.5,15.2z"/>
		<path d="M275.1,26.1h-5.2l-1.2,3.8h-2.8l5.2-14.7h2.8l5.2,14.7h-2.8L275.1,26.1z M272.5,17.7c0,0-0.3,1.5-0.6,2.3l-1.3,3.9h3.9
			l-1.3-3.9C272.8,19.2,272.5,17.7,272.5,17.7L272.5,17.7z"/>
		<path d="M281.2,15.2h4.7c1.6,0,2.3,0.1,3,0.4c1.5,0.7,2.4,2.1,2.4,4c0,1.8-0.9,3.4-2.5,4v0c0,0,0.2,0.2,0.5,0.7l3,5.5h-3l-2.9-5.5
			h-2.6v5.5h-2.7V15.2z M286.2,22.1c1.4,0,2.3-0.8,2.3-2.3c0-1.4-0.6-2.3-2.7-2.3h-2v4.6H286.2z"/>
		<path d="M297.4,23.7l-4.9-8.6h3l2.3,4.3c0.5,0.9,0.9,2,0.9,2h0c0,0,0.4-1.1,0.9-2l2.3-4.3h3l-4.9,8.6v6.2h-2.7V23.7z"/>
		<path d="M307.1,15.2h2.7v12.4h6.4v2.3h-9V15.2z"/>
		<path d="M327.5,26.1h-5.2l-1.2,3.8h-2.8l5.2-14.7h2.8l5.2,14.7h-2.8L327.5,26.1z M324.9,17.7c0,0-0.3,1.5-0.6,2.3l-1.3,3.9h3.9
			l-1.3-3.9C325.2,19.2,324.9,17.7,324.9,17.7L324.9,17.7z"/>
		<path d="M333.6,15.2h2.7l5.6,8.5c0.6,0.8,1.2,2.3,1.2,2.3h0c0,0-0.1-1.4-0.1-2.3v-8.5h2.7v14.7h-2.7l-5.6-8.5
			c-0.6-0.8-1.2-2.3-1.2-2.3h0c0,0,0.1,1.4,0.1,2.3v8.5h-2.7V15.2z"/>
		<path d="M349.5,15.2h5c4.5,0,7.5,2.7,7.5,7.3s-3,7.4-7.5,7.4h-5V15.2z M354.4,27.6c3,0,4.9-1.8,4.9-5.1c0-3.3-1.9-5-4.9-5h-2.2
			v10.1H354.4z"/>
	</g>
	<g>
		<path d="M86.5,38.3c3.6,0,5.5,1.9,5.5,1.9l-1.3,2c0,0-1.6-1.4-3.9-1.4c-3.3,0-5.1,2.3-5.1,5.1c0,3.2,2.2,5.3,4.9,5.3
			c2.2,0,3.7-1.5,3.7-1.5v-1.7h-2.3v-2.3h4.7v7.8h-2.3v-0.7c0-0.3,0-0.6,0-0.6h0c0,0-1.5,1.6-4.3,1.6c-3.9,0-7.2-3-7.2-7.6
			C78.9,41.6,82.2,38.3,86.5,38.3z"/>
		<path d="M96.5,38.5h2.7v12.4h6.4v2.3h-9V38.5z"/>
		<path d="M114.8,38.3c4.3,0,7.6,3.3,7.6,7.5c0,4.3-3.3,7.7-7.6,7.7c-4.3,0-7.6-3.4-7.6-7.7C107.2,41.6,110.5,38.3,114.8,38.3z
			 M114.8,51c2.7,0,4.8-2.2,4.8-5.3c0-2.9-2.2-5.1-4.8-5.1c-2.7,0-4.8,2.2-4.8,5.1C109.9,48.8,112.1,51,114.8,51z"/>
		<path d="M125.3,38.5h5.3c2.7,0,4.5,1.4,4.5,3.8c0,1.4-0.7,2.5-1.8,3.1v0c1.6,0.5,2.4,2,2.4,3.5c0,2.9-2.4,4.3-5.1,4.3h-5.3V38.5z
			 M130.6,44.5c1.2,0,1.8-0.8,1.8-1.9c0-1.1-0.6-1.8-1.9-1.8H128v3.7H130.6z M130.8,50.9c1.4,0,2.1-0.9,2.1-2.1
			c0-1.2-0.8-2.1-2.1-2.1H128v4.2H130.8z"/>
		<path d="M146.8,49.5h-5.2l-1.2,3.8h-2.8l5.2-14.7h2.8l5.2,14.7H148L146.8,49.5z M144.2,41.1c0,0-0.3,1.5-0.6,2.3l-1.3,3.9h3.9
			l-1.3-3.9C144.5,42.5,144.2,41.1,144.2,41.1L144.2,41.1z"/>
		<path d="M153.5,38.5h2.7v12.4h6.4v2.3h-9V38.5z"/>
		<path d="M177.9,38.3c3.6,0,5.4,2,5.4,2l-1.3,2c0,0-1.7-1.6-4-1.6c-3.1,0-4.9,2.3-4.9,5.1c0,2.8,1.9,5.3,5,5.3
			c2.5,0,4.3-1.9,4.3-1.9l1.4,1.9c0,0-2,2.4-5.8,2.4c-4.5,0-7.6-3.3-7.6-7.7C170.3,41.6,173.6,38.3,177.9,38.3z"/>
		<path d="M194.3,49.5h-5.2l-1.2,3.8h-2.8l5.2-14.7h2.8l5.2,14.7h-2.8L194.3,49.5z M191.7,41.1c0,0-0.3,1.5-0.6,2.3l-1.3,3.9h3.9
			l-1.3-3.9C192.1,42.5,191.8,41.1,191.7,41.1L191.7,41.1z"/>
		<path d="M201.9,38.5h2.9l2.9,7.3c0.3,0.9,0.7,2.2,0.7,2.2h0c0,0,0.4-1.3,0.7-2.2l2.9-7.3h2.9l1.2,14.7h-2.7l-0.6-8.2
			c-0.1-1,0-2.3,0-2.3h0c0,0-0.4,1.4-0.8,2.3l-2.4,5.7h-2.3l-2.4-5.7c-0.4-0.8-0.8-2.3-0.8-2.3h0c0,0,0,1.3,0,2.3l-0.6,8.2h-2.7
			L201.9,38.5z"/>
		<path d="M219.5,38.5h5.7c2.8,0,4.7,1.9,4.7,4.8s-1.9,4.8-4.7,4.8h-3v5.1h-2.7V38.5z M224.7,45.8c1.6,0,2.5-1,2.5-2.5
			c0-1.5-0.9-2.5-2.4-2.5h-2.5v5H224.7z"/>
		<path d="M232.9,38.5h2.7V48c0,2,1.3,3.1,3.3,3.1c2,0,3.3-1.1,3.3-3.1v-9.4h2.7V48c0,3.3-2.4,5.5-5.9,5.5c-3.6,0-5.9-2.2-5.9-5.5
			V38.5z"/>
		<path d="M249.1,49.5c0,0,1.6,1.6,3.7,1.6c1.1,0,2.1-0.6,2.1-1.8c0-2.6-6.9-2.2-6.9-6.7c0-2.4,2.1-4.3,4.9-4.3
			c2.9,0,4.4,1.6,4.4,1.6l-1.2,2.2c0,0-1.4-1.3-3.3-1.3c-1.2,0-2.2,0.7-2.2,1.8c0,2.6,6.9,2,6.9,6.7c0,2.3-1.8,4.3-4.8,4.3
			c-3.3,0-5.1-2-5.1-2L249.1,49.5z"/>
	</g>
</g>
<g>
	<ellipse transform="matrix(0.9366 -0.3503 0.3503 0.9366 -0.5271 6.7804)" class="st0" cx="18.5" cy="4.8" rx="8.3" ry="2.3"/>
	<path class="st0" d="M40.8,2.5c-2.6-0.9-5.3-1.5-8-1.8c0,0,0,0,0,0c0,0,0,0,0,0.1s0,0,0,0c0.7,0.2,1.2,0.6,1.3,1.1
		c0.9,2.3-5,6.6-13.1,9.7c-1.7,0.6-3.3,1.1-4.8,1.5l-2,7.2c2.7-0.6,5.7-1.6,9-2.8c11.3-4.2,17.9-9.1,19-12.8c0.1-0.3,0.1-0.7,0-1
		C42.1,3.3,41.8,2.9,40.8,2.5z"/>
	<path class="st1" d="M59.7,19.4C59.7,19.3,59.7,19.3,59.7,19.4C59.6,19.3,59.6,19.4,59.7,19.4c0.2,4.9-12,13.4-28.5,19.6
		c-1.6,0.6-3.1,1.1-4.7,1.6L24,49.7c3.1-0.9,6.5-1.9,10-3.2c13.4-5,22.6-10.9,27.3-16.5c0.3-0.4,1.3-1.6,1-3.3
		c-0.3-1.4-0.7-2.8-1.3-4.2C60.7,21.4,60.2,20.4,59.7,19.4z"/>
	<path class="st1" d="M54.3,11.5c-1.7-1.8-3.5-3.4-5.5-4.8c0,0,0,0-0.1,0c0,0,0,0.1,0,0.1C48.9,6.9,49,7,49,7.2
		c1.5,3.9-9,11.4-23.4,16.8C17.5,27.1,9.8,28.8,4.4,29l-2.9,8.1c6.1,0.4,15.3-1.2,26.9-5.6c12-4.5,20.3-9.5,24.5-14
		c0.8-0.8,1.3-1.8,1.8-2.8C55.1,13.6,55.1,12.3,54.3,11.5z"/>
	<path d="M63.1,36C63.1,35.9,63.1,36,63.1,36c-2.4,4.9-13,11.9-26.7,17c-6.6,2.5-12.9,4.1-18.2,5L16,64.2c6.2-0.4,13.8-2,22.6-5.3
		c6.3-2.3,17.4-7.6,21.6-13.3C61.7,43.6,63.1,39.4,63.1,36C63.2,36,63.2,36,63.1,36z"/>
	<g>
		<path d="M57.5,53C57.4,53,57.4,53,57.5,53c-4.9,3.8-10.9,7.2-17.8,9.8c-1.6,0.6-3.2,1.1-4.8,1.6L34,67.7c2.5-0.3,4.9-0.9,7.3-1.8
			C48.1,63.3,53.7,58.7,57.5,53C57.5,53.1,57.5,53,57.5,53z"/>
	</g>
</g>
</svg>
